<?xml version="1.0" encoding="UTF-8" standalone="no"?>
<!-- Created with Inkscape (http://www.inkscape.org/) -->

<svg
   width="192"
   height="32"
   viewBox="0 0 50.800001 8.4666656"
   version="1.1"
   id="svg1"
   xml:space="preserve"
   inkscape:version="1.4.2 (f4327f4, 2025-05-13)"
   sodipodi:docname="pacman.svg"
   inkscape:export-filename="pacman.png"
   inkscape:export-xdpi="96"
   inkscape:export-ydpi="96"
   xmlns:inkscape="http://www.inkscape.org/namespaces/inkscape"
   xmlns:sodipodi="http://sodipodi.sourceforge.net/DTD/sodipodi-0.dtd"
   xmlns="http://www.w3.org/2000/svg"
   xmlns:svg="http://www.w3.org/2000/svg"><sodipodi:namedview
     id="namedview1"
     pagecolor="#ffffff"
     bordercolor="#000000"
     borderopacity="0.25"
     inkscape:showpageshadow="2"
     inkscape:pageopacity="0.0"
     inkscape:pagecheckerboard="0"
     inkscape:deskcolor="#d1d1d1"
     inkscape:document-units="mm"
     showgrid="true"
     inkscape:zoom="2.8284271"
     inkscape:cx="161.22035"
     inkscape:cy="6.5407378"
     inkscape:window-width="1920"
     inkscape:window-height="1051"
     inkscape:window-x="-9"
     inkscape:window-y="-9"
     inkscape:window-maximized="1"
     inkscape:current-layer="layer1"><inkscape:grid
       id="grid1"
       units="px"
       originx="0"
       originy="0"
       spacingx="8.4666662"
       spacingy="8.4666662"
       empcolor="#0099e5"
       empopacity="0.30196078"
       color="#0099e5"
       opacity="0.14901961"
       empspacing="5"
       enabled="true"
       visible="true" /></sodipodi:namedview><defs
     id="defs1"><pattern
       patternUnits="userSpaceOnUse"
       preserveAspectRatio="xMidYMid"
       width="377.95281"
       height="377.95276"
       patternTransform="translate(404.48247,34.885489) scale(0.2)"
       style="fill:#000000"
       id="ap101"
       inkscape:collect="always"
       inkscape:isstock="true"
       inkscape:label="ap101"><path
         id="path41"
         style="color:#000000;opacity:1;stroke-width:2.97601;-inkscape-stroke:none;paint-order:markers fill stroke"
         d="M 130.28729,0 V 59.421109 H 59.421146 v 3.575614 67.290537 H 0 v 7.14354 h 59.421146 v 16.47851 H 0 v 7.14354 h 59.421146 v 55.85321 H 0 v 7.14351 h 59.421146 v 16.47854 H 0 v 7.14351 h 59.421146 v 70.86615 h 70.866144 v 59.41499 h 7.14353 v -59.41499 h 16.47852 v 59.41499 h 7.14353 v -59.41499 h 55.84554 v 59.41499 h 7.1435 v -59.41499 h 16.47855 v 59.41499 h 7.1435 v -59.41499 h 70.86614 v -70.86615 h 59.42271 v -7.14351 H 318.5301 v -16.47854 h 59.42271 v -7.14351 H 318.5301 v -55.85321 h 59.42271 v -7.14354 H 318.5301 V 137.4308 h 59.42271 v -7.14354 H 318.5301 V 59.421109 H 247.66396 V 0 h -7.1435 V 59.421109 H 224.10799 V 0 h -7.1435 V 59.421109 H 161.05287 V 0 h -7.14353 V 59.421109 H 137.43082 V 0 Z M 66.56468,66.564658 h 63.72261 v 40.100552 h -23.62205 v 3.57561 20.04644 H 66.56468 Z m 70.86614,0 h 15.47852 v 40.100552 h -16.47852 z m 22.62205,0 h 51.91162 v 40.100552 h -51.91162 z m 59.05512,0 h 20.41247 v 40.100552 h -20.41247 z m 27.55597,0 H 311.3866 V 130.28726 H 271.286 V 106.66521 H 245.66396 Z M 113.80877,113.80875 h 16.47852 v 16.47851 h -16.47852 z m 23.62205,0 h 16.47852 v 40.10056 H 113.80877 V 137.4308 h 23.62205 z m 23.62205,0 h 24.3479 v 71.5997 h -71.592 v -24.3556 h 47.2441 z m 31.49144,0 h 20.42018 v 47.2441 h 51.17802 v 24.3556 h -71.5982 z m 27.56368,0 h 20.41247 v 23.62205 h 23.62205 v 16.47851 h -44.03452 z m 27.55597,0 h 16.47855 v 16.47851 H 247.66396 Z M 66.56468,137.4308 h 40.10056 v 16.47851 H 66.56468 Z m 204.72132,0 h 40.1006 v 16.47851 H 271.286 Z M 66.56468,161.05285 h 40.10056 v 55.85321 H 66.56468 Z m 204.72132,0 h 40.1006 v 55.85321 H 271.286 Z m -157.47723,31.49912 h 71.592 v 71.59819 h -24.3479 v -47.2441 h -47.2441 z m 78.73554,0 h 71.5982 v 24.35409 h -47.2441 v 47.2441 h -24.3541 z m -125.97963,31.4976 h 40.10056 v 16.47854 H 66.56468 Z m 47.24409,0 h 40.10057 v 40.10059 h -16.47852 v -23.62205 h -23.62205 z m 110.23314,0 h 40.1006 v 16.47854 h -23.62205 v 23.62205 h -16.47855 z m 47.24409,0 h 40.1006 v 16.47854 H 271.286 Z M 66.56468,247.67162 h 40.10056 v 23.62205 h 23.62205 v 40.10058 H 66.56468 Z m 47.24409,0 h 16.47852 v 16.47854 h -16.47852 z m 133.85519,0 h 16.47855 v 16.47854 h -16.47855 z m 23.62204,0 h 40.1006 v 63.72263 H 247.66396 V 271.29367 H 271.286 Z m -133.85518,23.62205 h 16.47852 v 40.10058 h -16.47852 z m 23.62205,0 h 55.84554 v 40.10058 h -55.84554 z m 62.98904,0 h 16.47855 v 40.10058 h -16.47855 z" /></pattern><inkscape:path-effect
       effect="powerstroke"
       message=""
       id="path-effect59"
       is_visible="true"
       lpeversion="1.3"
       scale_width="1"
       interpolator_type="CubicBezierJohan"
       interpolator_beta="0.2"
       start_linecap_type="zerowidth"
       end_linecap_type="zerowidth"
       offset_points="0,4.9921382"
       linejoin_type="extrp_arc"
       miter_limit="4"
       not_jump="false"
       sort_points="true" /><inkscape:path-effect
       effect="powerstroke"
       message=""
       id="path-effect57"
       is_visible="true"
       lpeversion="1.3"
       scale_width="1"
       interpolator_type="CubicBezierJohan"
       interpolator_beta="0.2"
       start_linecap_type="zerowidth"
       end_linecap_type="zerowidth"
       offset_points="0,4.9921382"
       linejoin_type="extrp_arc"
       miter_limit="4"
       not_jump="false"
       sort_points="true" /><inkscape:path-effect
       effect="powerstroke"
       message=""
       id="path-effect55"
       is_visible="true"
       lpeversion="1.3"
       scale_width="1"
       interpolator_type="CubicBezierJohan"
       interpolator_beta="0.2"
       start_linecap_type="zerowidth"
       end_linecap_type="zerowidth"
       offset_points="0,4.9921382"
       linejoin_type="extrp_arc"
       miter_limit="4"
       not_jump="false"
       sort_points="true" /><inkscape:path-effect
       effect="powerstroke"
       message=""
       id="path-effect49"
       is_visible="true"
       lpeversion="1.3"
       scale_width="1"
       interpolator_type="CubicBezierJohan"
       interpolator_beta="0.2"
       start_linecap_type="zerowidth"
       end_linecap_type="zerowidth"
       offset_points="0,4.9921382"
       linejoin_type="extrp_arc"
       miter_limit="4"
       not_jump="false"
       sort_points="true" /><inkscape:path-effect
       effect="powerstroke"
       message=""
       id="path-effect45"
       is_visible="true"
       lpeversion="1.3"
       scale_width="1"
       interpolator_type="CubicBezierJohan"
       interpolator_beta="0.2"
       start_linecap_type="zerowidth"
       end_linecap_type="zerowidth"
       offset_points="0,4.9921382"
       linejoin_type="extrp_arc"
       miter_limit="4"
       not_jump="false"
       sort_points="true" /><inkscape:path-effect
       effect="powerstroke"
       message=""
       id="path-effect43"
       is_visible="true"
       lpeversion="1.3"
       scale_width="1"
       interpolator_type="CubicBezierJohan"
       interpolator_beta="0.2"
       start_linecap_type="zerowidth"
       end_linecap_type="zerowidth"
       offset_points="0,4.9921382"
       linejoin_type="extrp_arc"
       miter_limit="4"
       not_jump="false"
       sort_points="true" /><inkscape:path-effect
       effect="powerstroke"
       message=""
       id="path-effect41"
       is_visible="true"
       lpeversion="1.3"
       scale_width="1"
       interpolator_type="CubicBezierJohan"
       interpolator_beta="0.2"
       start_linecap_type="zerowidth"
       end_linecap_type="zerowidth"
       offset_points="0,4.9921382"
       linejoin_type="extrp_arc"
       miter_limit="4"
       not_jump="false"
       sort_points="true" /><inkscape:path-effect
       effect="powerstroke"
       message=""
       id="path-effect32"
       is_visible="true"
       lpeversion="1.3"
       scale_width="1"
       interpolator_type="CubicBezierJohan"
       interpolator_beta="0.2"
       start_linecap_type="zerowidth"
       end_linecap_type="zerowidth"
       offset_points="0,4.9921382"
       linejoin_type="extrp_arc"
       miter_limit="4"
       not_jump="false"
       sort_points="true" /><inkscape:path-effect
       effect="fill_between_many"
       method="bsplinespiro"
       autoreverse="false"
       close="false"
       join="false"
       linkedpaths="#path32,0,1"
       id="path-effect33"
       is_visible="true"
       lpeversion="0" /><inkscape:path-effect
       effect="fill_between_many"
       method="bsplinespiro"
       autoreverse="false"
       close="false"
       join="false"
       linkedpaths="#path41,0,1"
       id="path-effect42"
       is_visible="true"
       lpeversion="0" /><inkscape:path-effect
       effect="fill_between_many"
       method="bsplinespiro"
       autoreverse="false"
       close="false"
       join="false"
       linkedpaths="#path43,0,1"
       id="path-effect44"
       is_visible="true"
       lpeversion="0" /><inkscape:path-effect
       effect="fill_between_many"
       method="bsplinespiro"
       autoreverse="false"
       close="false"
       join="false"
       linkedpaths="#path45,0,1"
       id="path-effect46"
       is_visible="true"
       lpeversion="0" /><inkscape:path-effect
       effect="fill_between_many"
       method="bsplinespiro"
       autoreverse="false"
       close="false"
       join="false"
       linkedpaths="#path49,0,1"
       id="path-effect50"
       is_visible="true"
       lpeversion="0" /><inkscape:path-effect
       effect="fill_between_many"
       method="bsplinespiro"
       autoreverse="false"
       close="false"
       join="false"
       linkedpaths="#path55,0,1"
       id="path-effect56"
       is_visible="true"
       lpeversion="0" /><inkscape:path-effect
       effect="fill_between_many"
       method="bsplinespiro"
       autoreverse="false"
       close="false"
       join="false"
       linkedpaths="#path57,0,1"
       id="path-effect58"
       is_visible="true"
       lpeversion="0" /><inkscape:path-effect
       effect="fill_between_many"
       method="bsplinespiro"
       autoreverse="false"
       close="false"
       join="false"
       linkedpaths="#path59,0,1"
       id="path-effect60"
       is_visible="true"
       lpeversion="0" /></defs><g
     inkscape:label="Layer 1"
     inkscape:groupmode="layer"
     id="layer1"><circle
       style="font-variation-settings:normal;opacity:1;vector-effect:none;fill:#ffcc00;fill-opacity:0.694118;stroke-width:0.29883;stroke-linecap:butt;stroke-linejoin:miter;stroke-miterlimit:4;stroke-dasharray:none;stroke-dashoffset:0;stroke-opacity:1;-inkscape-stroke:none;paint-order:stroke markers fill;stop-color:#000000;stop-opacity:1"
       id="path1"
       cx="4.3263307"
       cy="4.2333336"
       r="3.5" /><circle
       style="font-variation-settings:normal;vector-effect:none;fill:#ffcc00;fill-opacity:1;stroke-width:0.25214;stroke-linecap:butt;stroke-linejoin:miter;stroke-miterlimit:4;stroke-dasharray:none;stroke-dashoffset:0;stroke-opacity:1;-inkscape-stroke:none;paint-order:stroke markers fill;stop-color:#000000"
       id="path1-1"
       cx="4.3263307"
       cy="4.2333336"
       r="2.953125" /><path
       id="path2"
       style="font-variation-settings:normal;opacity:1;vector-effect:none;fill:#ffcc00;fill-opacity:0.692964;stroke-width:0.308924;stroke-linecap:butt;stroke-linejoin:miter;stroke-miterlimit:4;stroke-dasharray:none;stroke-dashoffset:0;stroke-opacity:1;-inkscape-stroke:none;paint-order:stroke markers fill;stop-color:#000000;stop-opacity:1"
       d="m 12.806786,0.73333354 a 3.557202,3.4999873 0 0 0 -3.5572147,3.50000006 3.557202,3.4999873 0 0 0 3.5572147,3.5 3.557202,3.4999873 0 0 0 3.442785,-2.6195175 L 12.806786,4.2333336 16.239115,3.314417 A 3.557202,3.4999873 0 0 0 12.806786,0.73333354 Z" /><path
       id="path2-7"
       style="font-variation-settings:normal;vector-effect:none;fill:#ffcc00;fill-opacity:1;stroke-width:0.262774;stroke-linecap:butt;stroke-linejoin:miter;stroke-miterlimit:4;stroke-dasharray:none;stroke-dashoffset:0;stroke-opacity:1;-inkscape-stroke:none;paint-order:stroke markers fill;stop-color:#000000"
       d="M 12.806786,1.2802188 A 3.0504425,2.9531037 0 0 0 9.7563323,4.2333336 3.0504425,2.9531037 0 0 0 12.806786,7.186448 3.0504425,2.9531037 0 0 0 15.759111,4.9762381 L 12.806786,4.2333336 15.750144,3.4580004 A 3.0504425,2.9531037 0 0 0 12.806786,1.2802188 Z" /><path
       id="path3"
       style="fill:#ffcc00;fill-opacity:0.694118;stroke-width:0.312525;paint-order:stroke markers fill"
       d="M 21.326827,0.73332319 A 3.6541208,3.499996 0 0 0 17.672812,4.2332664 3.6541208,3.499996 0 0 0 21.326827,7.7333231 3.6541208,3.499996 0 0 0 24.672695,5.6404144 L 24.050729,5.3787725 23.254094,5.0441749 23.254212,5.0438237 21.326827,4.2332556 22.850348,3.5858449 23.883612,3.146863 24.662662,2.8157825 A 3.6541208,3.499996 0 0 0 21.326827,0.73332319 Z m 3.345868,4.90709121 a 3.6541208,3.499996 0 0 0 1.17e-4,-2.196e-4 l -1.17e-4,-1.135e-4 z" /><path
       id="path3-2"
       style="fill:#ffcc00;fill-opacity:1;stroke-width:0.269937;paint-order:stroke markers fill"
       d="m 21.326827,1.2692574 a 3.2189304,2.9640723 0 0 0 -3.218836,2.9640278 3.2189304,2.9640723 0 0 0 3.218836,2.964124 3.2189304,2.9640723 0 0 0 2.947389,-1.7724401 L 23.726324,5.2033901 23.024565,4.9200267 23.024669,4.9197194 21.326827,4.2332664 22.668903,3.684988 23.57911,3.3132236 24.265378,3.0328384 a 3.2189304,2.9640723 0 0 0 -2.938551,-1.763581 z m 2.947389,4.1557117 a 3.2189304,2.9640723 0 0 0 1.04e-4,-1.857e-4 l -1.04e-4,-9.62e-5 z" /><path
       id="path4"
       style="fill:#ffcc00;fill-opacity:0.694118;stroke-width:0.329829;paint-order:stroke markers fill"
       d="M 30.166102,0.73333333 A 4.0699672,3.5000019 0 0 0 26.096053,4.2333332 4.0699672,3.5000019 0 0 0 30.166102,7.7333333 4.0699672,3.5000019 0 0 0 33.096053,6.6570739 L 32.256503,5.9626141 30.166102,4.2333332 33.09211,1.8006238 A 4.0699672,3.5000019 0 0 0 30.166102,0.73333333 Z M 33.09211,1.8006238 v 5.668e-4 l 2.53e-4,-3.405e-4 a 4.0699672,3.5000019 0 0 0 -2.53e-4,-2.263e-4 z" /><path
       id="path4-3"
       style="fill:#ffcc00;fill-opacity:1;stroke-width:0.300833;paint-order:stroke markers fill"
       d="m 30.166102,1.2674787 a 3.9956487,2.9658561 0 0 0 -3.99573,2.9658545 3.9956487,2.9658561 0 0 0 3.99573,2.9658546 3.9956487,2.9658561 0 0 0 2.876448,-0.9120082 L 32.218331,5.6987033 30.166102,4.2333332 33.038679,2.1718868 A 3.9956487,2.9658561 0 0 0 30.166102,1.2674787 Z m 2.872577,0.9044081 v 4.811e-4 l 2.49e-4,-2.878e-4 a 3.9956487,2.9658561 0 0 0 -2.49e-4,-1.917e-4 z" /><path
       id="path5"
       style="fill:#ffcc00;fill-opacity:0.694118;stroke-width:0.322593;paint-order:stroke markers fill"
       d="M 38.213098,0.73333998 A 3.6937912,3.4999873 0 0 0 34.519294,4.23334 a 3.6937912,3.4999873 0 0 0 3.693804,3.5 3.6937912,3.4999873 0 0 0 3.306196,-1.9561883 l -0.459907,-0.2147794 -0.59591,-0.2765 6.92e-4,-0.00136 -2.251071,-1.051176 3.305719,-1.5449422 A 3.6937912,3.4999873 0 0 0 38.213098,0.73333998 Z" /><path
       id="path5-4"
       style="fill:#ffcc00;fill-opacity:1;stroke-width:0.279621;paint-order:stroke markers fill"
       d="M 38.213022,1.2802187 A 3.2892012,2.9531037 0 0 0 34.92381,4.2333332 3.2892012,2.9531037 0 0 0 38.213022,7.1864478 3.2892012,2.9531037 0 0 0 41.157084,5.5359197 L 40.747549,5.3547004 40.216911,5.1214041 40.217604,5.1202631 38.213098,4.2333366 41.156734,2.9297961 A 3.2892012,2.9531037 0 0 0 38.213022,1.2802187 Z" /><path
       id="path6"
       style="fill:#ffcc00;fill-opacity:0.694118;stroke-width:0.315238;paint-order:stroke markers fill"
       d="m 46.491909,0.73333325 a 3.5494324,3.5000172 0 0 0 -3.549374,3.50005655 3.5494324,3.5000172 0 0 0 3.549374,3.4999434 3.5494324,3.5000172 0 0 0 3.449597,-2.6757351 l -0.269231,-0.064385 -0.0023,-4.599e-4 -3.178083,-0.7593714 2.999851,-0.7189757 0.0026,-5.693e-4 0.442332,-0.1060242 A 3.5494324,3.5000172 0 0 0 46.491909,0.73333325 Z m 3.449709,4.32007835 v 0.00384 a 3.5494324,3.5000172 0 0 0 9.17e-4,-0.00362 z" /><path
       id="path6-7"
       style="fill:#ffcc00;fill-opacity:1;stroke-width:0.267276;paint-order:stroke markers fill"
       d="m 46.491952,1.2773274 a 3.0210831,2.9560411 0 0 0 -3.021034,2.9560742 3.0210831,2.9560411 0 0 0 3.021034,2.9559786 3.0210831,2.9560411 0 0 0 2.936107,-2.2598696 l -0.229153,-0.054377 -0.0019,-3.942e-4 -2.705012,-0.6413491 2.553309,-0.6072317 0.0022,-4.818e-4 0.376482,-0.089546 A 3.0210831,2.9560411 0 0 0 46.491973,1.2773273 Z m 2.936205,3.6486471 v 0.00325 a 3.0210831,2.9560411 0 0 0 6.61e-4,-0.00306 z" /></g></svg>
